<svg width="363" height="278" viewBox="0 0 363 278" fill="none" xmlns="http://www.w3.org/2000/svg">
<g clip-path="url(#clip0)">
<path opacity="0.2" d="M299.933 244.921H273.9V230.255H299.933V244.921ZM275 243.821H298.833V231.355H275V243.821Z" fill="#8566CC"/>
<path opacity="0.2" d="M325.967 244.188H299.933V229.522H325.967V244.188ZM301.033 243.088H324.867V230.622H301.033V243.088Z" fill="#8566CC"/>
<path opacity="0.2" d="M352 244.188H325.967V229.522H352V244.188ZM327.067 243.088H350.9V230.622H327.067V243.088Z" fill="#8566CC"/>
<path opacity="0.2" d="M352 229.522H325.967V214.856H352V229.522ZM327.067 228.422H350.9V215.956H327.067V228.422Z" fill="#8566CC"/>
<path opacity="0.2" d="M325.967 229.522H299.933V214.856H325.967V229.522ZM301.033 228.422H324.867V215.956H301.033V228.422Z" fill="#8566CC"/>
<path opacity="0.2" d="M32.6333 244.188H6.59998V229.522H32.6333V244.188ZM7.69998 243.088H31.5333V230.622H7.69998V243.088Z" fill="#8566CC"/>
<path opacity="0.2" d="M58.6666 244.188H32.6333V229.522H58.6666V244.188ZM33.7333 243.088H57.5666V230.622H33.7333V243.088Z" fill="#8566CC"/>
<path opacity="0.2" d="M84.7 244.188H58.6666V229.522H84.7V244.188ZM59.7666 243.088H83.6V230.622H59.7666V243.088Z" fill="#8566CC"/>
<path opacity="0.2" d="M110.733 244.921H84.7V230.255H110.733V244.921ZM85.8 243.821H109.633V231.355H85.8V243.821Z" fill="#8566CC"/>
<path opacity="0.2" d="M84.7 229.522H58.6666V214.856H84.7V229.522ZM59.7666 228.422H83.6V215.956H59.7666V228.422Z" fill="#8566CC"/>
<path opacity="0.2" d="M58.6666 229.522H32.6333V214.856H58.6666V229.522ZM33.7333 228.422H57.5666V215.956H33.7333V228.422Z" fill="#8566CC"/>
<path d="M326.436 198.855C326.436 198.855 321.618 182.492 327.338 170.447C329.771 165.412 330.504 159.722 329.428 154.234C328.897 151.632 328.129 149.084 327.133 146.623" stroke="#535461" stroke-width="2" stroke-miterlimit="10"/>
<path d="M330.697 139C330.697 141.006 327.067 146.821 327.067 146.821C327.067 146.821 323.437 141.006 323.437 139C323.437 138.037 323.819 137.113 324.5 136.432C325.181 135.751 326.105 135.368 327.068 135.368C328.032 135.368 328.955 135.751 329.637 136.432C330.318 137.113 330.7 138.037 330.7 139H330.697Z" fill="#8566CC"/>
<path d="M336.699 150.12C335.599 151.803 329.399 154.711 329.399 154.711C329.399 154.711 329.512 147.855 330.601 146.172C330.86 145.771 331.196 145.426 331.588 145.155C331.981 144.884 332.423 144.694 332.889 144.594C333.355 144.494 333.837 144.487 334.306 144.573C334.775 144.659 335.222 144.836 335.623 145.096C336.023 145.355 336.369 145.69 336.639 146.082C336.91 146.475 337.101 146.917 337.201 147.383C337.301 147.85 337.308 148.331 337.222 148.8C337.136 149.269 336.958 149.716 336.699 150.117V150.12Z" fill="#8566CC"/>
<path d="M336.435 169.105C334.646 170.007 327.818 169.384 327.818 169.384C327.818 169.384 331.375 163.518 333.168 162.619C334.028 162.186 335.025 162.112 335.94 162.413C336.855 162.715 337.613 163.367 338.047 164.227C338.48 165.087 338.555 166.084 338.253 166.999C337.952 167.914 337.299 168.672 336.439 169.105H336.435Z" fill="#8566CC"/>
<path d="M333.003 183.423C331.39 184.615 324.57 185.154 324.57 185.154C324.57 185.154 327.085 178.778 328.698 177.582C329.082 177.299 329.517 177.093 329.98 176.978C330.442 176.863 330.923 176.84 331.395 176.91C331.866 176.981 332.319 177.143 332.728 177.389C333.137 177.634 333.493 177.958 333.777 178.341C334.06 178.725 334.266 179.16 334.381 179.623C334.496 180.085 334.519 180.566 334.449 181.038C334.378 181.509 334.216 181.962 333.97 182.371C333.725 182.78 333.401 183.136 333.018 183.419L333.003 183.423Z" fill="#8566CC"/>
<path d="M321.776 155.103C323.213 156.5 329.916 157.948 329.916 157.948C329.916 157.948 328.273 151.29 326.836 149.882C326.494 149.55 326.089 149.288 325.646 149.112C325.203 148.936 324.729 148.849 324.253 148.856C323.776 148.863 323.305 148.964 322.867 149.153C322.429 149.342 322.033 149.615 321.701 149.957C321.368 150.299 321.107 150.704 320.931 151.147C320.755 151.59 320.668 152.063 320.675 152.54C320.682 153.017 320.782 153.488 320.971 153.926C321.16 154.364 321.434 154.76 321.776 155.092V155.103Z" fill="#8566CC"/>
<path d="M317.973 171.896C319.763 172.798 326.59 172.174 326.59 172.174C326.59 172.174 323.033 166.308 321.24 165.41C320.38 164.976 319.383 164.902 318.468 165.203C317.553 165.505 316.796 166.157 316.362 167.017C315.928 167.878 315.854 168.875 316.155 169.79C316.457 170.704 317.11 171.462 317.97 171.896H317.973Z" fill="#8566CC"/>
<path d="M316.518 188.729C318.131 189.92 324.951 190.459 324.951 190.459C324.951 190.459 322.45 184.098 320.833 182.891C320.45 182.608 320.015 182.403 319.552 182.287C319.089 182.172 318.609 182.149 318.137 182.219C317.665 182.29 317.212 182.452 316.804 182.698C316.395 182.944 316.039 183.267 315.755 183.65C315.471 184.034 315.266 184.469 315.151 184.932C315.035 185.394 315.012 185.875 315.083 186.347C315.153 186.818 315.316 187.271 315.561 187.68C315.807 188.089 316.131 188.445 316.514 188.729H316.518Z" fill="#8566CC"/>
<path opacity="0.25" d="M330.697 139C330.697 141.006 327.067 146.821 327.067 146.821C327.067 146.821 323.437 141.006 323.437 139C323.437 138.037 323.819 137.113 324.5 136.432C325.181 135.751 326.105 135.368 327.068 135.368C328.032 135.368 328.955 135.751 329.637 136.432C330.318 137.113 330.7 138.037 330.7 139H330.697Z" fill="black"/>
<path opacity="0.25" d="M336.699 150.12C335.599 151.803 329.399 154.711 329.399 154.711C329.399 154.711 329.512 147.855 330.601 146.172C330.86 145.771 331.196 145.426 331.588 145.155C331.981 144.884 332.423 144.694 332.889 144.594C333.355 144.494 333.837 144.487 334.306 144.573C334.775 144.659 335.222 144.836 335.623 145.096C336.023 145.355 336.369 145.69 336.639 146.082C336.91 146.475 337.101 146.917 337.201 147.383C337.301 147.85 337.308 148.331 337.222 148.8C337.136 149.269 336.958 149.716 336.699 150.117V150.12Z" fill="black"/>
<path opacity="0.25" d="M336.435 169.105C334.646 170.007 327.818 169.384 327.818 169.384C327.818 169.384 331.375 163.518 333.168 162.619C334.028 162.186 335.025 162.112 335.94 162.413C336.855 162.715 337.613 163.367 338.047 164.227C338.48 165.087 338.555 166.084 338.253 166.999C337.952 167.914 337.299 168.672 336.439 169.105H336.435Z" fill="black"/>
<path opacity="0.25" d="M333.003 183.423C331.39 184.615 324.57 185.154 324.57 185.154C324.57 185.154 327.085 178.778 328.698 177.582C329.082 177.299 329.517 177.093 329.98 176.978C330.442 176.863 330.923 176.84 331.395 176.91C331.866 176.981 332.319 177.143 332.728 177.389C333.137 177.634 333.493 177.958 333.777 178.341C334.06 178.725 334.266 179.16 334.381 179.623C334.496 180.085 334.519 180.566 334.449 181.038C334.378 181.509 334.216 181.962 333.97 182.371C333.725 182.78 333.401 183.136 333.018 183.419L333.003 183.423Z" fill="black"/>
<path opacity="0.25" d="M321.776 155.103C323.213 156.5 329.916 157.948 329.916 157.948C329.916 157.948 328.273 151.29 326.836 149.882C326.494 149.55 326.089 149.288 325.646 149.112C325.203 148.936 324.729 148.849 324.253 148.856C323.776 148.863 323.305 148.964 322.867 149.153C322.429 149.342 322.033 149.615 321.701 149.957C321.368 150.299 321.107 150.704 320.931 151.147C320.755 151.59 320.668 152.063 320.675 152.54C320.682 153.017 320.782 153.488 320.971 153.926C321.16 154.364 321.434 154.76 321.776 155.092V155.103Z" fill="black"/>
<path opacity="0.25" d="M317.973 171.896C319.763 172.798 326.59 172.174 326.59 172.174C326.59 172.174 323.033 166.308 321.24 165.41C320.38 164.976 319.383 164.902 318.468 165.203C317.553 165.505 316.796 166.157 316.362 167.017C315.928 167.878 315.854 168.875 316.155 169.79C316.457 170.704 317.11 171.462 317.97 171.896H317.973Z" fill="black"/>
<path opacity="0.25" d="M316.518 188.729C318.131 189.92 324.951 190.459 324.951 190.459C324.951 190.459 322.45 184.098 320.833 182.891C320.45 182.608 320.015 182.403 319.552 182.287C319.089 182.172 318.609 182.149 318.137 182.219C317.665 182.29 317.212 182.452 316.804 182.698C316.395 182.944 316.039 183.267 315.755 183.65C315.471 184.034 315.266 184.469 315.151 184.932C315.035 185.394 315.012 185.875 315.083 186.347C315.153 186.818 315.316 187.271 315.561 187.68C315.807 188.089 316.131 188.445 316.514 188.729H316.518Z" fill="black"/>
<path d="M61.8933 198.98C61.8933 198.98 57.002 182.374 62.81 170.165C65.2796 165.054 66.0245 159.28 64.933 153.71C64.3944 151.063 63.6138 148.471 62.601 145.966" stroke="#535461" stroke-width="2" stroke-miterlimit="10"/>
<path d="M66.2163 138.267C66.2163 140.302 62.5313 146.205 62.5313 146.205C62.5313 146.205 58.8427 140.283 58.8427 138.267C58.8427 137.289 59.2309 136.352 59.922 135.661C60.613 134.97 61.5503 134.582 62.5276 134.582C63.505 134.582 64.4423 134.97 65.1333 135.661C65.8244 136.352 66.2126 137.289 66.2126 138.267H66.2163Z" fill="#8566CC"/>
<path d="M72.3067 149.523C71.2067 151.231 64.9 154.183 64.9 154.183C64.9 154.183 65.0137 147.217 66.121 145.519C66.379 145.102 66.7175 144.741 67.1169 144.457C67.5162 144.172 67.9682 143.97 68.4465 143.863C68.9248 143.755 69.4197 143.744 69.9023 143.831C70.3849 143.917 70.8454 144.098 71.257 144.365C71.6685 144.631 72.0227 144.977 72.2989 145.382C72.5751 145.787 72.7678 146.243 72.8655 146.723C72.9633 147.204 72.9642 147.699 72.8682 148.179C72.7723 148.66 72.5814 149.117 72.3067 149.523Z" fill="#8566CC"/>
<path d="M72.0389 168.786C70.2056 169.703 63.2939 169.069 63.2939 169.069C63.2939 169.069 66.9056 163.122 68.7206 162.205C69.5934 161.765 70.6052 161.69 71.5335 161.996C72.4618 162.302 73.2306 162.964 73.6706 163.837C74.1107 164.709 74.1859 165.721 73.88 166.65C73.574 167.578 72.9117 168.346 72.0389 168.786V168.786Z" fill="#8566CC"/>
<path d="M68.5667 183.317C66.9314 184.527 59.994 185.073 59.994 185.073C59.994 185.073 62.5607 178.602 64.185 177.373C64.5741 177.085 65.0162 176.875 65.4863 176.757C65.9563 176.639 66.4449 176.615 66.9243 176.686C67.4037 176.756 67.8645 176.921 68.2803 177.17C68.6961 177.419 69.0588 177.747 69.3477 178.136C69.6366 178.525 69.846 178.967 69.9641 179.437C70.0821 179.907 70.1064 180.396 70.0356 180.875C69.9648 181.355 69.8002 181.815 69.5513 182.231C69.3024 182.647 68.9741 183.01 68.585 183.298L68.5667 183.317Z" fill="#8566CC"/>
<path d="M57.1596 154.575C58.6263 155.994 65.4206 157.461 65.4206 157.461C65.4206 157.461 63.756 150.707 62.2966 149.288C61.951 148.943 61.5404 148.671 61.0886 148.486C60.6368 148.302 60.1528 148.208 59.6647 148.212C59.1766 148.216 58.6942 148.317 58.2454 148.509C57.7966 148.701 57.3904 148.98 57.0504 149.33C56.7104 149.68 56.4433 150.095 56.2647 150.549C56.0862 151.003 55.9996 151.488 56.0101 151.976C56.0206 152.464 56.128 152.945 56.326 153.391C56.5239 153.838 56.8085 154.24 57.1633 154.575H57.1596Z" fill="#8566CC"/>
<path d="M53.3024 171.632C55.1357 172.548 62.0474 171.914 62.0474 171.914C62.0474 171.914 58.4357 165.967 56.6207 165.05C55.7479 164.61 54.7361 164.535 53.8078 164.841C52.8795 165.147 52.1108 165.809 51.6707 166.682C51.2307 167.555 51.1554 168.566 51.4614 169.495C51.7674 170.423 52.4296 171.192 53.3024 171.632V171.632Z" fill="#8566CC"/>
<path d="M51.8247 188.703C53.46 189.913 60.3974 190.459 60.3974 190.459C60.3974 190.459 57.8307 183.988 56.2064 182.759C55.4206 182.176 54.4353 181.929 53.4671 182.072C52.4989 182.215 51.6272 182.736 51.0437 183.522C50.4602 184.308 50.2128 185.293 50.3558 186.261C50.4988 187.229 51.0206 188.101 51.8063 188.685L51.8247 188.703Z" fill="#8566CC"/>
<path opacity="0.5" d="M66.2163 138.267C66.2163 140.302 62.5313 146.205 62.5313 146.205C62.5313 146.205 58.8427 140.283 58.8427 138.267C58.8427 137.289 59.2309 136.352 59.922 135.661C60.613 134.97 61.5503 134.582 62.5276 134.582C63.505 134.582 64.4423 134.97 65.1333 135.661C65.8244 136.352 66.2126 137.289 66.2126 138.267H66.2163Z" fill="white"/>
<path opacity="0.5" d="M72.3067 149.523C71.2067 151.231 64.9 154.183 64.9 154.183C64.9 154.183 65.0137 147.217 66.121 145.519C66.379 145.102 66.7175 144.741 67.1169 144.457C67.5162 144.172 67.9682 143.97 68.4465 143.863C68.9248 143.755 69.4197 143.744 69.9023 143.831C70.3849 143.917 70.8454 144.098 71.257 144.365C71.6685 144.631 72.0227 144.977 72.2989 145.382C72.5751 145.787 72.7678 146.243 72.8655 146.723C72.9633 147.204 72.9642 147.699 72.8682 148.179C72.7723 148.66 72.5814 149.117 72.3067 149.523Z" fill="white"/>
<path opacity="0.5" d="M72.0389 168.786C70.2056 169.703 63.2939 169.069 63.2939 169.069C63.2939 169.069 66.9056 163.122 68.7206 162.205C69.5934 161.765 70.6052 161.69 71.5335 161.996C72.4618 162.302 73.2306 162.964 73.6706 163.837C74.1107 164.709 74.1859 165.721 73.88 166.65C73.574 167.578 72.9117 168.346 72.0389 168.786V168.786Z" fill="white"/>
<path opacity="0.5" d="M68.5667 183.317C66.9314 184.527 59.994 185.073 59.994 185.073C59.994 185.073 62.5607 178.602 64.185 177.373C64.5741 177.085 65.0162 176.875 65.4863 176.757C65.9563 176.639 66.4449 176.615 66.9243 176.686C67.4037 176.756 67.8645 176.921 68.2803 177.17C68.6961 177.419 69.0588 177.747 69.3477 178.136C69.6366 178.525 69.846 178.967 69.9641 179.437C70.0821 179.907 70.1064 180.396 70.0356 180.875C69.9648 181.355 69.8002 181.815 69.5513 182.231C69.3024 182.647 68.9741 183.01 68.585 183.298L68.5667 183.317Z" fill="white"/>
<path opacity="0.5" d="M57.1596 154.575C58.6263 155.994 65.4206 157.461 65.4206 157.461C65.4206 157.461 63.756 150.707 62.2966 149.288C61.951 148.943 61.5404 148.671 61.0886 148.486C60.6368 148.302 60.1528 148.208 59.6647 148.212C59.1766 148.216 58.6942 148.317 58.2454 148.509C57.7966 148.701 57.3904 148.98 57.0504 149.33C56.7104 149.68 56.4433 150.095 56.2647 150.549C56.0862 151.003 55.9996 151.488 56.0101 151.976C56.0206 152.464 56.128 152.945 56.326 153.391C56.5239 153.838 56.8085 154.24 57.1633 154.575H57.1596Z" fill="white"/>
<path opacity="0.5" d="M53.3024 171.632C55.1357 172.548 62.0474 171.914 62.0474 171.914C62.0474 171.914 58.4357 165.967 56.6207 165.05C55.7479 164.61 54.7361 164.535 53.8078 164.841C52.8795 165.147 52.1108 165.809 51.6707 166.682C51.2307 167.555 51.1554 168.566 51.4614 169.495C51.7674 170.423 52.4296 171.192 53.3024 171.632V171.632Z" fill="white"/>
<path opacity="0.5" d="M51.8247 188.703C53.46 189.913 60.3974 190.459 60.3974 190.459C60.3974 190.459 57.8307 183.988 56.2064 182.759C55.4206 182.176 54.4353 181.929 53.4671 182.072C52.4989 182.215 51.6272 182.736 51.0437 183.522C50.4602 184.308 50.2128 185.293 50.3558 186.261C50.4988 187.229 51.0206 188.101 51.8063 188.685L51.8247 188.703Z" fill="white"/>
<path d="M33.9863 198.569C33.9863 198.569 30.261 185.931 34.6867 176.6C36.5682 172.705 37.1356 168.305 36.3037 164.06C35.893 162.049 35.299 160.079 34.529 158.176" stroke="#535461" stroke-width="2" stroke-miterlimit="10"/>
<path d="M37.2826 152.287C37.2826 153.838 34.474 158.337 34.474 158.337C34.474 158.337 31.6653 153.838 31.6653 152.287C31.6653 151.542 31.9612 150.828 32.4879 150.301C33.0146 149.775 33.729 149.479 34.474 149.479C35.2189 149.479 35.9332 149.775 36.46 150.301C36.9867 150.828 37.2826 151.542 37.2826 152.287V152.287Z" fill="#8566CC"/>
<path d="M41.9246 160.878C41.0813 162.18 36.278 164.431 36.278 164.431C36.278 164.431 36.366 159.129 37.2093 157.831C37.4098 157.521 37.6694 157.254 37.9732 157.045C38.2769 156.836 38.619 156.688 38.9797 156.611C39.3404 156.534 39.7128 156.529 40.0756 156.596C40.4384 156.662 40.7845 156.8 41.0941 157.001C41.4037 157.201 41.6708 157.461 41.8801 157.764C42.0894 158.068 42.2368 158.41 42.3139 158.771C42.3911 159.132 42.3964 159.504 42.3296 159.867C42.2628 160.23 42.1252 160.576 41.9246 160.885V160.878Z" fill="#8566CC"/>
<path d="M41.723 175.558C40.337 176.255 35.057 175.775 35.057 175.775C35.057 175.775 37.807 171.243 39.193 170.543C39.8582 170.207 40.6294 170.15 41.3369 170.383C42.0445 170.616 42.6305 171.121 42.966 171.786C43.3015 172.451 43.359 173.222 43.1259 173.929C42.8928 174.637 42.3882 175.223 41.723 175.558V175.558Z" fill="#8566CC"/>
<path d="M39.0683 186.635C37.8216 187.559 32.5343 187.973 32.5343 187.973C32.5343 187.973 34.4813 183.042 35.728 182.107C36.327 181.664 37.0775 181.477 37.8143 181.587C38.5511 181.698 39.2138 182.096 39.6568 182.695C40.0998 183.294 40.2866 184.045 40.1762 184.781C40.0659 185.518 39.6673 186.181 39.0683 186.624V186.635Z" fill="#8566CC"/>
<path d="M30.3821 164.731C31.4821 165.813 36.6777 166.931 36.6777 166.931C36.6777 166.931 35.4091 161.798 34.2944 160.698C34.0296 160.441 33.7167 160.239 33.3737 160.103C33.0308 159.967 32.6644 159.9 32.2955 159.906C31.9265 159.911 31.5623 159.99 31.2237 160.136C30.885 160.282 30.5784 160.494 30.3216 160.759C30.0647 161.024 29.8625 161.336 29.7265 161.679C29.5905 162.022 29.5234 162.389 29.529 162.758C29.5346 163.126 29.6129 163.491 29.7592 163.829C29.9056 164.168 30.1172 164.474 30.3821 164.731V164.731Z" fill="#8566CC"/>
<path d="M27.4413 177.722C28.8273 178.418 34.1073 177.938 34.1073 177.938C34.1073 177.938 31.3573 173.406 29.9713 172.706C29.3061 172.37 28.535 172.313 27.8274 172.546C27.1198 172.779 26.5338 173.284 26.1983 173.949C25.8628 174.614 25.8053 175.385 26.0384 176.093C26.2715 176.8 26.7761 177.386 27.4413 177.722V177.722Z" fill="#8566CC"/>
<path d="M26.3157 190.738C27.5624 191.662 32.8497 192.076 32.8497 192.076C32.8497 192.076 30.9027 187.145 29.656 186.21C29.3594 185.99 29.0225 185.832 28.6645 185.742C28.3066 185.653 27.9346 185.636 27.5697 185.69C27.2049 185.745 26.8544 185.871 26.5383 186.061C26.2221 186.251 25.9465 186.501 25.7272 186.798C25.5079 187.095 25.3491 187.432 25.26 187.79C25.1708 188.147 25.1531 188.519 25.2078 188.884C25.2624 189.249 25.3884 189.6 25.5785 189.916C25.7686 190.232 26.0191 190.507 26.3157 190.727V190.738Z" fill="#8566CC"/>
<path opacity="0.25" d="M37.2826 152.287C37.2826 153.838 34.474 158.337 34.474 158.337C34.474 158.337 31.6653 153.838 31.6653 152.287C31.6653 151.542 31.9612 150.828 32.4879 150.301C33.0146 149.775 33.729 149.479 34.474 149.479C35.2189 149.479 35.9332 149.775 36.46 150.301C36.9867 150.828 37.2826 151.542 37.2826 152.287V152.287Z" fill="black"/>
<path opacity="0.25" d="M41.9246 160.878C41.0813 162.18 36.278 164.431 36.278 164.431C36.278 164.431 36.366 159.129 37.2093 157.831C37.4098 157.521 37.6694 157.254 37.9732 157.045C38.2769 156.836 38.619 156.688 38.9797 156.611C39.3404 156.534 39.7128 156.529 40.0756 156.596C40.4384 156.662 40.7845 156.8 41.0941 157.001C41.4037 157.201 41.6708 157.461 41.8801 157.764C42.0894 158.068 42.2368 158.41 42.3139 158.771C42.3911 159.132 42.3964 159.504 42.3296 159.867C42.2628 160.23 42.1252 160.576 41.9246 160.885V160.878Z" fill="black"/>
<path opacity="0.25" d="M41.723 175.558C40.337 176.255 35.057 175.775 35.057 175.775C35.057 175.775 37.807 171.243 39.193 170.543C39.8582 170.207 40.6294 170.15 41.3369 170.383C42.0445 170.616 42.6305 171.121 42.966 171.786C43.3015 172.451 43.359 173.222 43.1259 173.929C42.8928 174.637 42.3882 175.223 41.723 175.558V175.558Z" fill="black"/>
<path opacity="0.25" d="M39.0683 186.635C37.8216 187.559 32.5343 187.973 32.5343 187.973C32.5343 187.973 34.4813 183.042 35.728 182.107C36.327 181.664 37.0775 181.477 37.8143 181.587C38.5511 181.698 39.2138 182.096 39.6568 182.695C40.0998 183.294 40.2866 184.045 40.1762 184.781C40.0659 185.518 39.6673 186.181 39.0683 186.624V186.635Z" fill="black"/>
<path opacity="0.25" d="M30.3821 164.731C31.4821 165.813 36.6777 166.931 36.6777 166.931C36.6777 166.931 35.4091 161.798 34.2944 160.698C34.0296 160.441 33.7167 160.239 33.3737 160.103C33.0308 159.967 32.6644 159.9 32.2955 159.906C31.9265 159.911 31.5623 159.99 31.2237 160.136C30.885 160.282 30.5784 160.494 30.3216 160.759C30.0647 161.024 29.8625 161.336 29.7265 161.679C29.5905 162.022 29.5234 162.389 29.529 162.758C29.5346 163.126 29.6129 163.491 29.7592 163.829C29.9056 164.168 30.1172 164.474 30.3821 164.731V164.731Z" fill="black"/>
<path opacity="0.25" d="M27.4413 177.722C28.8273 178.418 34.1073 177.938 34.1073 177.938C34.1073 177.938 31.3573 173.406 29.9713 172.706C29.3061 172.37 28.535 172.313 27.8274 172.546C27.1198 172.779 26.5338 173.284 26.1983 173.949C25.8628 174.614 25.8053 175.385 26.0384 176.093C26.2715 176.8 26.7761 177.386 27.4413 177.722V177.722Z" fill="black"/>
<path opacity="0.25" d="M26.3157 190.738C27.5624 191.662 32.8497 192.076 32.8497 192.076C32.8497 192.076 30.9027 187.145 29.656 186.21C29.3594 185.99 29.0225 185.832 28.6645 185.742C28.3066 185.653 27.9346 185.636 27.5697 185.69C27.2049 185.745 26.8544 185.871 26.5383 186.061C26.2221 186.251 25.9465 186.501 25.7272 186.798C25.5079 187.095 25.3491 187.432 25.26 187.79C25.1708 188.147 25.1531 188.519 25.2078 188.884C25.2624 189.249 25.3884 189.6 25.5785 189.916C25.7686 190.232 26.0191 190.507 26.3157 190.727V190.738Z" fill="black"/>
<g opacity="0.7">
<path opacity="0.6" d="M363 29.3319H0V214.489H363V29.3319Z" fill="#8566CC"/>
<path opacity="0.25" d="M0 29.3319V214.856H363V29.3319H0ZM16.1333 45.4644H173.433V114.028H16.1333V45.4644ZM16.1333 130.16H173.433V198.723H16.1333V130.16ZM346.867 198.723H189.567V130.16H346.867V198.723ZM346.867 114.028H189.567V45.4644H346.867V114.028Z" fill="black"/>
</g>
<g opacity="0.7">
<path opacity="0.7" d="M133.14 222.511C133.14 222.511 101.372 210.896 97.0237 227.245L109.208 258.216L110.513 278.015H137.056V261.226C137.056 261.226 133.14 244.448 143.15 234.127L133.14 222.511Z" fill="url(#paint0_linear)"/>
<g opacity="0.1">
<path opacity="0.1" d="M138.461 130.343C137.111 129.896 135.487 129.496 134.387 130.387C133.749 130.904 133.474 131.737 132.979 132.389C131.333 134.549 128.014 134.146 125.393 134.919C121.539 136.056 119.159 139.873 117.795 143.612C111.76 160.112 118.488 178.983 113.234 195.739C111.687 200.67 109.157 206.144 111.657 210.68C112.49 212.194 113.857 213.455 114.261 215.127C114.825 217.397 113.736 220.374 115.639 221.756C116.233 222.185 116.985 222.321 117.696 222.489C121.979 223.619 125.224 226.952 128.487 229.914C131.751 232.877 135.674 235.744 140.1 235.549C141.53 235.431 142.942 235.151 144.309 234.713L166.272 228.598C168.472 227.986 170.863 227.245 172.139 225.368C172.92 224.22 173.166 222.801 173.364 221.437C174.122 216.225 174.481 210.963 174.438 205.697C174.438 203.959 174.357 202.181 173.705 200.564C172.971 198.698 171.505 197.205 170.438 195.5C168.377 192.201 167.823 188.237 167.314 184.398C166.503 178.286 165.693 172.053 166.815 165.989C167.295 163.386 168.124 160.856 168.674 158.271C169.565 154.06 169.707 149.724 169.092 145.464C168.579 141.926 167.479 138.336 165.059 135.675C163.475 133.901 161.323 132.734 158.972 132.375C156.002 132.008 154.524 133.717 151.877 134.355C147.961 135.334 142.226 131.586 138.461 130.343Z" fill="url(#paint1_linear)"/>
</g>
<path opacity="0.7" d="M138.461 129.467C137.111 129.02 135.487 128.62 134.387 129.511C133.749 130.028 133.474 130.86 132.979 131.513C131.333 133.673 128.014 133.269 125.393 134.043C121.539 135.18 119.159 138.996 117.795 142.736C111.76 159.235 118.488 178.107 113.234 194.863C111.687 199.794 109.157 205.268 111.657 209.803C112.49 211.318 113.857 212.579 114.261 214.251C114.825 216.52 113.736 219.498 115.639 220.88C116.233 221.309 116.985 221.445 117.696 221.613C121.979 222.743 125.224 226.075 128.487 229.038C131.751 232 135.667 234.901 140.1 234.695C141.53 234.577 142.942 234.297 144.309 233.859L166.272 227.744C168.472 227.131 170.863 226.391 172.139 224.513C172.92 223.366 173.166 221.947 173.364 220.583C174.122 215.371 174.481 210.109 174.438 204.843C174.438 203.105 174.357 201.327 173.705 199.71C172.971 197.843 171.505 196.351 170.438 194.646C168.377 191.346 167.823 187.383 167.314 183.544C166.503 177.432 165.693 171.199 166.815 165.135C167.295 162.532 168.124 160.002 168.674 157.417C169.565 153.206 169.707 148.87 169.092 144.61C168.579 141.072 167.479 137.482 165.059 134.82C163.475 133.047 161.323 131.88 158.972 131.52C156.002 131.154 154.524 132.862 151.877 133.5C147.961 134.454 142.226 130.728 138.461 129.467Z" fill="url(#paint2_linear)"/>
<path opacity="0.7" d="M132.271 96.9051C132.271 96.9051 132.708 113.25 127.486 112.821C122.265 112.392 142.267 139.92 142.267 139.92L159.236 130.886C159.236 130.886 149.233 114.974 156.2 105.078C163.167 95.1819 132.271 96.9051 132.271 96.9051Z" fill="url(#paint3_linear)"/>
<g opacity="0.1">
<path opacity="0.1" d="M103.114 235.846C103.114 235.846 99.6343 259.506 90.9296 253.053C82.225 246.6 83.5303 235.846 83.5303 235.846C83.5303 235.846 100.503 190.25 99.6343 183.364C98.7653 176.479 128.601 122.977 128.601 122.977L139.652 210.896C139.652 210.896 106.594 222.94 103.114 235.846Z" fill="url(#paint4_linear)"/>
</g>
<path opacity="0.7" d="M102.245 235.846C102.245 235.846 98.7653 259.506 90.0606 253.053C81.3559 246.6 82.6613 235.846 82.6613 235.846C82.6613 235.846 99.6343 190.25 98.7616 183.364C97.889 176.479 127.728 122.977 127.728 122.977L138.78 210.896C138.78 210.896 105.725 222.94 102.245 235.846Z" fill="url(#paint5_linear)"/>
<path opacity="0.7" d="M133.14 107.23C133.14 107.23 116.167 118.834 109.633 118.413L104.562 119.791C99.5481 121.136 95.0099 123.856 91.4604 127.645C87.911 131.433 85.4919 136.138 84.4763 141.229L84.3957 141.64C81.7923 155.408 80.9197 193.264 80.9197 193.264C80.9197 193.264 81.356 203.163 85.7047 205.73L113.571 224.656C113.571 224.656 112.702 204.01 123.145 201.858C133.588 199.706 120.534 200.997 120.534 200.997L101.387 189.814C101.387 189.814 101.823 173.036 107.045 167.448C112.266 161.861 130.544 132.617 130.544 132.617L125.323 114.552L133.14 107.23Z" fill="url(#paint6_linear)"/>
<g opacity="0.1">
<path opacity="0.1" d="M151.851 118.413C151.851 118.413 162.54 121.21 170.023 122.578C171.189 122.786 172.29 123.267 173.235 123.98C174.181 124.694 174.944 125.62 175.465 126.684C177.723 131.344 181.166 139.774 180.572 146.802L187.099 172.182L205.799 194.547L188.833 202.294L169.693 181.216L185.357 221.221L156.2 222.511C156.2 222.511 147.495 157.981 149.673 147.235L151.851 118.413Z" fill="url(#paint7_linear)"/>
</g>
<path opacity="0.7" d="M152.72 118.413C152.72 118.413 163.409 121.21 170.892 122.578C172.058 122.786 173.159 123.267 174.104 123.98C175.05 124.694 175.813 125.62 176.334 126.684C178.592 131.344 182.035 139.774 181.441 146.802L187.968 172.182L206.668 194.547L189.699 202.291L170.551 181.212L186.23 221.221L157.073 222.511C157.073 222.511 148.368 157.981 150.546 147.235L152.72 118.413Z" fill="url(#paint8_linear)"/>
<path opacity="0.7" d="M131.71 105.859L137.709 134.974L127.919 139.92L122.555 113.694L131.71 105.859Z" fill="url(#paint9_linear)"/>
<path opacity="0.7" d="M148.152 137.126L152.72 118.413L158.598 129.383L155.551 138.417L148.152 137.126Z" fill="url(#paint10_linear)"/>
<path opacity="0.1" d="M164.688 142.718C164.688 142.718 164.688 171.969 168.604 174.118Z" fill="url(#paint11_linear)"/>
<path opacity="0.1" d="M108.552 150.029C108.552 150.029 99.5207 178.836 102.076 181.854Z" fill="url(#paint12_linear)"/>
<path opacity="0.1" d="M106.814 189.597C106.814 189.597 124.223 200.85 126.614 201.03Z" fill="url(#paint13_linear)"/>
<g opacity="0.1">
<path opacity="0.1" d="M132.704 98.6247C132.704 98.6247 132.77 101.144 132.535 104.176C134.087 107.777 136.662 110.842 139.941 112.993C143.22 115.144 147.057 116.285 150.979 116.275C152.053 116.274 153.126 116.189 154.187 116.019C154.073 112.799 154.693 109.569 156.636 106.812C163.599 96.9051 132.704 98.6247 132.704 98.6247Z" fill="url(#paint14_linear)"/>
</g>
<path opacity="0.7" d="M150.546 114.545C161.601 114.545 170.562 105.685 170.562 94.7566C170.562 83.828 161.601 74.9686 150.546 74.9686C139.491 74.9686 130.53 83.828 130.53 94.7566C130.53 105.685 139.491 114.545 150.546 114.545Z" fill="url(#paint15_linear)"/>
<g opacity="0.1">
<path opacity="0.1" d="M163.247 86.4373C165.671 86.76 168.747 85.9607 169.228 83.5848C169.818 80.5856 165.759 78.6351 165.132 75.6395C164.897 74.5176 165.176 73.3443 165.04 72.204C164.769 69.9088 162.892 68.1416 160.981 66.807C154.916 62.6077 147.568 60.6716 140.221 61.3366C139.311 61.4209 138.354 61.5676 137.654 62.1432C136.855 62.7922 136.554 63.8481 136 64.7098C134.123 67.7089 129.906 68.0609 126.881 69.9308C123.343 72.1307 121.59 76.4095 121.433 80.5306C121.275 84.6517 122.463 88.6959 123.633 92.6557C124.634 96.0215 125.682 99.479 127.879 102.236C130.075 104.993 133.72 106.918 137.17 106.09C135.59 104.964 136.737 102.35 138.45 101.433C140.162 100.517 142.289 100.359 143.752 99.094C145.215 97.8291 145.655 95.7575 146.131 93.873C146.733 91.4971 147.598 89.0845 149.358 87.3503C152.808 83.9551 159.023 85.8764 163.247 86.4373Z" fill="url(#paint16_linear)"/>
</g>
<path opacity="0.7" d="M162.8 86.0083C165.224 86.331 168.3 85.5317 168.78 83.1558C169.371 80.1566 165.312 78.2061 164.685 75.2105C164.45 74.0886 164.729 72.9153 164.593 71.775C164.322 69.4798 162.444 67.7126 160.534 66.378C154.473 62.1808 147.131 60.2435 139.788 60.9039C138.879 60.9883 137.922 61.1349 137.221 61.7106C136.422 62.3595 136.121 63.4155 135.568 64.2771C133.69 67.2763 129.474 67.6283 126.449 69.4982C122.91 71.6981 121.158 75.9768 121 80.098C120.842 84.2191 122.03 88.2632 123.2 92.223C124.201 95.5889 125.25 99.0463 127.446 101.804C129.642 104.561 133.287 106.486 136.737 105.657C135.157 104.531 136.305 101.917 138.017 101.001C139.729 100.084 141.856 99.9263 143.319 98.6614C144.782 97.3964 145.222 95.3249 145.699 93.4403C146.3 91.0644 147.165 88.6519 148.925 86.9176C152.372 83.5261 158.587 85.4437 162.8 86.0083Z" fill="url(#paint17_linear)"/>
<g opacity="0.1">
<path opacity="0.1" d="M147.085 97.4258C146.791 99.4716 146.139 103.013 144.91 105.25C143.286 108.161 141.897 111.196 140.756 114.328V114.328C140.756 114.328 148.771 120.462 152.856 124.653C154.113 125.969 155.723 126.897 157.492 127.325C159.261 127.753 161.116 127.665 162.837 127.069C164.96 126.307 166.819 124.833 167.314 122.068C168.091 117.709 167.167 114.42 166.294 112.473C165.874 111.553 165.653 110.554 165.648 109.543C165.643 108.532 165.854 107.531 166.265 106.607C166.566 105.947 166.918 105.43 167.31 105.301C167.31 105.301 159.478 103.582 159.042 105.73C158.605 107.879 152.515 110.031 151.21 106.159L150.843 97.6237C150.82 97.14 150.612 96.6838 150.26 96.3503C149.909 96.0169 149.443 95.8321 148.958 95.8345V95.8345C148.507 95.8301 148.069 95.9886 147.725 96.2808C147.381 96.5731 147.153 96.9796 147.085 97.4258V97.4258Z" fill="url(#paint18_linear)"/>
</g>
<path opacity="0.7" d="M147.085 97.8584C146.791 99.9043 146.139 103.446 144.91 105.683C143.286 108.593 141.897 111.629 140.756 114.761V114.761C140.756 114.761 148.771 120.895 152.856 125.086C154.113 126.402 155.723 127.329 157.492 127.758C159.261 128.186 161.116 128.097 162.837 127.502C164.96 126.739 166.819 125.265 167.314 122.501C168.091 118.141 167.167 114.853 166.294 112.906C165.874 111.986 165.653 110.987 165.648 109.976C165.643 108.964 165.854 107.963 166.265 107.039C166.566 106.379 166.918 105.862 167.31 105.734C167.31 105.734 159.478 104.014 159.042 106.163C158.605 108.312 152.515 110.464 151.21 106.592L150.843 98.0564C150.82 97.5727 150.612 97.1164 150.26 96.783C149.909 96.4496 149.443 96.2648 148.958 96.2672V96.2672C148.507 96.2628 148.069 96.4212 147.725 96.7135C147.381 97.0057 147.153 97.4122 147.085 97.8584V97.8584Z" fill="url(#paint19_linear)"/>
</g>
<path d="M133.566 222.229C133.566 222.229 103.07 210.951 98.8937 226.823L110.59 256.888L111.833 276.126H137.317V259.829C137.317 259.829 133.558 243.539 143.183 233.511L133.566 222.229Z" fill="#535461"/>
<path opacity="0.1" d="M138.673 132.727C137.379 132.294 135.817 131.905 134.765 132.771C134.152 133.273 133.888 134.08 133.412 134.714C131.831 136.811 128.645 136.419 126.13 137.17C122.43 138.27 120.149 141.981 118.837 145.603C113.043 161.622 119.5 179.955 114.459 196.223C112.992 201.011 110.546 206.328 112.944 210.731C113.744 212.198 115.045 213.426 115.445 215.05C115.988 217.25 114.943 220.147 116.769 221.489C117.337 221.906 118.059 222.035 118.741 222.222C122.852 223.322 125.968 226.556 129.1 229.434C132.231 232.312 136 235.095 140.246 234.908C141.617 234.793 142.971 234.521 144.28 234.098L165.363 228.158C167.479 227.56 169.763 226.842 170.999 225.019C171.732 223.919 171.985 222.533 172.176 221.203C172.903 216.14 173.247 211.031 173.206 205.917C173.206 204.23 173.129 202.503 172.509 200.934C171.776 199.123 170.397 197.675 169.371 196.014C167.394 192.817 166.859 188.96 166.371 185.231C165.594 179.295 164.817 173.241 165.891 167.353C166.353 164.827 167.149 162.37 167.677 159.859C168.533 155.768 168.669 151.559 168.08 147.422C167.589 143.986 166.529 140.5 164.212 137.915C162.698 136.196 160.63 135.062 158.367 134.71C155.514 134.344 154.095 136.015 151.554 136.635C147.796 137.555 142.289 133.937 138.673 132.727Z" fill="black"/>
<path d="M138.673 131.891C137.379 131.458 135.817 131.069 134.765 131.935C134.152 132.437 133.888 133.244 133.412 133.878C131.831 135.975 128.645 135.583 126.13 136.334C122.43 137.434 120.149 141.145 118.837 144.767C113.043 160.786 119.5 179.119 114.459 195.387C112.992 200.175 110.546 205.492 112.944 209.895C113.744 211.362 115.045 212.59 115.445 214.214C115.988 216.414 114.943 219.311 116.769 220.653C117.337 221.071 118.059 221.199 118.741 221.386C122.852 222.486 125.968 225.72 129.1 228.598C132.231 231.476 136 234.259 140.246 234.072C141.617 233.957 142.971 233.685 144.28 233.262L165.367 227.326C167.482 226.728 169.767 226.009 171.002 224.187C171.736 223.087 171.989 221.701 172.179 220.37C172.907 215.308 173.251 210.199 173.21 205.085C173.21 203.398 173.133 201.671 172.513 200.102C171.78 198.291 170.401 196.842 169.374 195.182C167.398 191.984 166.863 188.127 166.375 184.398C165.598 178.462 164.82 172.409 165.895 166.521C166.357 163.994 167.152 161.538 167.68 159.026C168.536 154.936 168.673 150.727 168.084 146.59C167.592 143.154 166.533 139.667 164.215 137.082C162.706 135.362 160.642 134.224 158.382 133.867C155.529 133.5 154.11 135.172 151.569 135.792C147.796 136.723 142.289 133.101 138.673 131.891Z" fill="#E0E0E0"/>
<path d="M132.733 100.256C132.733 100.256 133.151 116.128 128.139 115.711C123.127 115.293 142.344 142.029 142.344 142.029L158.635 133.255C158.635 133.255 149.028 117.8 155.701 108.191C162.375 98.5807 132.733 100.256 132.733 100.256Z" fill="#FDA57D"/>
<path opacity="0.1" d="M104.742 235.183C104.742 235.183 101.402 258.157 93.0454 251.891C84.689 245.625 85.943 235.183 85.943 235.183C85.943 235.183 102.234 190.903 101.398 184.219C100.562 177.535 129.221 125.573 129.221 125.573L139.828 210.951C139.828 210.951 108.082 222.651 104.742 235.183Z" fill="black"/>
<path d="M103.906 235.183C103.906 235.183 100.566 258.157 92.2093 251.891C83.853 245.625 85.107 235.183 85.107 235.183C85.107 235.183 101.398 190.903 100.562 184.219C99.726 177.535 128.385 125.573 128.385 125.573L138.992 210.951C138.992 210.951 107.246 222.651 103.906 235.183Z" fill="#4D8AF0"/>
<path d="M133.566 110.28C133.566 110.28 117.275 121.559 111.008 121.141L106.139 122.479C101.304 123.808 96.9369 126.461 93.5297 130.139C90.1225 133.818 87.8111 138.375 86.8561 143.297L86.7791 143.697C84.2711 157.065 83.4387 193.825 83.4387 193.825C83.4387 193.825 83.8567 203.431 88.0331 205.924L114.767 224.323C114.767 224.323 113.931 204.271 123.959 202.184C133.987 200.098 121.451 201.348 121.451 201.348L103.07 190.485C103.07 190.485 103.488 174.195 108.5 168.764C113.513 163.334 131.058 134.93 131.058 134.93L126.045 117.368L133.566 110.28Z" fill="#4D8AF0"/>
<path opacity="0.1" d="M151.529 121.144C151.529 121.144 161.795 123.861 168.975 125.177C170.098 125.383 171.157 125.852 172.064 126.545C172.972 127.239 173.702 128.137 174.196 129.166C176.363 133.695 179.667 141.875 179.098 148.702L185.365 173.348L203.331 195.068L187.037 202.599L168.667 182.133L183.7 220.997L155.709 222.229C155.709 222.229 147.352 159.569 149.442 149.127L151.529 121.144Z" fill="black"/>
<path d="M152.365 121.144C152.365 121.144 162.631 123.861 169.811 125.177C170.934 125.383 171.993 125.852 172.9 126.545C173.808 127.239 174.538 128.137 175.032 129.166C177.199 133.695 180.503 141.875 179.934 148.702L186.201 173.348L204.167 195.068L187.876 202.588L169.495 182.118L184.529 220.983L156.541 222.229C156.541 222.229 148.185 159.569 150.275 149.127L152.365 121.144Z" fill="#4D8AF0"/>
<path d="M132.194 108.953L137.955 137.225L128.553 142.028L123.405 116.561L132.194 108.953Z" fill="#E0E0E0"/>
<path d="M147.979 139.315L152.365 121.144L158.004 131.795L155.082 140.569L147.979 139.315Z" fill="#E0E0E0"/>
<path opacity="0.1" d="M163.852 144.745C163.852 144.745 163.852 173.15 167.611 175.24Z" fill="black"/>
<path opacity="0.1" d="M109.963 151.833C109.963 151.833 101.292 179.808 103.73 182.738Z" fill="black"/>
<path opacity="0.1" d="M108.291 190.276C108.291 190.276 125.004 201.202 127.299 201.378Z" fill="black"/>
<path opacity="0.1" d="M133.148 101.928C133.148 101.928 133.214 104.374 132.986 107.318C134.663 111.284 137.624 114.573 141.393 116.656C145.162 118.739 149.522 119.496 153.773 118.805C153.663 115.678 154.26 112.543 156.123 109.862C162.8 100.256 133.148 101.928 133.148 101.928Z" fill="black"/>
<path d="M150.275 117.386C160.888 117.386 169.492 108.783 169.492 98.1701C169.492 87.5573 160.888 78.954 150.275 78.954C139.661 78.954 131.058 87.5573 131.058 98.1701C131.058 108.783 139.661 117.386 150.275 117.386Z" fill="#FDA57D"/>
<path opacity="0.1" d="M162.466 90.0928C164.795 90.4045 167.761 89.6272 168.208 87.3246C168.777 84.4098 164.879 82.5179 164.278 79.625C164.05 78.5251 164.322 77.3958 164.19 76.2922C163.929 74.0629 162.125 72.347 160.292 71.0528C154.487 66.9812 147.425 65.1 140.364 65.7437C139.491 65.828 138.571 65.9673 137.896 66.5247C137.13 67.1553 136.833 68.1782 136.308 69.0252C134.504 71.9364 130.442 72.281 127.556 74.0959C124.157 76.2188 122.478 80.3876 122.324 84.3914C122.17 88.3952 123.314 92.322 124.443 96.1645C125.404 99.435 126.412 102.79 128.52 105.466C130.629 108.143 134.13 110.013 137.438 109.206C135.92 108.106 137.023 105.573 138.666 104.685C140.309 103.798 142.333 103.644 143.759 102.412C145.185 101.18 145.592 99.171 146.043 97.3414C146.623 95.0316 147.459 92.6923 149.142 91.0058C152.449 87.6693 158.4 89.5465 162.466 90.0928Z" fill="black"/>
<path d="M162.067 89.6748C164.395 89.9865 167.361 89.2092 167.809 86.9066C168.377 83.9918 164.479 82.0999 163.878 79.207C163.651 78.1071 163.922 76.9778 163.79 75.8742C163.511 73.6266 161.7 71.9034 159.867 70.6164C154.065 66.5461 147.008 64.6637 139.949 65.3037C139.077 65.388 138.156 65.5274 137.482 66.0847C136.715 66.7153 136.418 67.7382 135.894 68.5852C134.09 71.4964 130.027 71.841 127.142 73.6559C123.743 75.7788 122.063 79.9476 121.909 83.9514C121.755 87.9552 122.899 91.882 124.029 95.7245C124.989 98.995 125.998 102.35 128.106 105.026C130.214 107.703 133.716 109.573 137.023 108.766C135.505 107.666 136.609 105.133 138.252 104.245C139.894 103.358 141.918 103.204 143.345 101.972C144.771 100.74 145.178 98.731 145.629 96.9014C146.208 94.5916 147.044 92.2523 148.727 90.5658C152.031 87.2623 157.997 89.1358 162.067 89.6748Z" fill="#72351C"/>
<path opacity="0.1" d="M146.953 100.762C146.67 102.749 146.043 106.189 144.863 108.359C143.303 111.183 141.969 114.125 140.873 117.159C140.873 117.159 148.573 123.117 152.478 127.187C153.677 128.463 155.22 129.364 156.921 129.78C158.622 130.197 160.406 130.111 162.059 129.533C164.098 128.8 165.884 127.359 166.357 124.679C167.09 120.444 166.217 117.25 165.381 115.359C164.98 114.464 164.772 113.495 164.77 112.515C164.767 111.535 164.97 110.565 165.367 109.668C165.656 109.027 165.994 108.528 166.371 108.4C166.371 108.4 158.851 106.728 158.433 108.818C158.015 110.907 152.167 112.994 150.913 109.235L150.568 100.946C150.549 100.478 150.35 100.036 150.012 99.712C149.675 99.388 149.225 99.2073 148.757 99.2077V99.2077C148.319 99.2042 147.894 99.36 147.562 99.6459C147.231 99.9319 147.014 100.329 146.953 100.762Z" fill="black"/>
<path d="M146.953 101.18C146.67 103.167 146.043 106.607 144.863 108.777C143.303 111.6 141.969 114.543 140.873 117.577C140.873 117.577 148.573 123.535 152.478 127.605C153.677 128.881 155.22 129.781 156.921 130.198C158.622 130.614 160.406 130.529 162.059 129.951C164.098 129.218 165.884 127.777 166.357 125.097C167.09 120.862 166.217 117.668 165.381 115.776C164.977 114.881 164.765 113.91 164.761 112.927C164.756 111.944 164.959 110.971 165.356 110.071C165.645 109.43 165.983 108.931 166.36 108.803C166.36 108.803 158.84 107.131 158.422 109.221C158.004 111.311 152.167 113.415 150.902 109.668L150.557 101.378C150.538 100.911 150.339 100.469 150.001 100.145C149.664 99.8206 149.214 99.6399 148.746 99.6403V99.6403C148.312 99.639 147.892 99.7939 147.563 100.077C147.233 100.359 147.017 100.751 146.953 101.18V101.18Z" fill="#72351C"/>
<path d="M296.267 220.029C296.267 220.029 288.717 212.473 285.941 202.43H286.59L286.279 201.558H286.59L285.608 198.764C288.391 196.029 290.448 193.378 290.781 191.871C291.346 189.334 291.907 175.606 292.248 166.066L292.549 166.139C293.282 164.885 293.436 163.305 293.385 161.872C293.412 160.261 293.205 158.655 292.769 157.105L291.408 143.484C291.277 142.231 290.893 141.018 290.278 139.918C289.664 138.818 288.832 137.854 287.833 137.086L274.047 126.391C274.772 125.412 275.694 124.596 276.753 123.993C277.541 123.575 278.458 123.289 278.989 122.574C279.95 121.28 279.132 119.351 279.789 117.877C280.28 116.777 281.49 116.161 282.198 115.175C283.646 113.155 282.597 110.365 281.516 108.128L275.231 95.1379C273.489 91.5411 271.733 87.9149 269.298 84.7471C261.844 75.0382 247.5 70.2095 235.807 74.4186C232.474 75.6175 229.405 77.9201 227.982 81.1612C227.487 82.2905 227.19 83.5225 226.472 84.5234C224.869 86.7563 221.742 87.178 219.505 88.7839C216.649 90.8481 215.589 94.7346 215.989 98.2361C216.388 101.738 217.994 104.971 219.578 108.136C221.243 111.435 222.963 114.834 225.694 117.335C226.97 118.504 228.532 119.59 228.939 121.273C229.288 122.717 228.672 124.206 228.8 125.702C228.854 126.324 229.036 126.928 229.335 127.476C223.164 128.25 218.786 133.376 216.825 141.002C216.704 141.475 216.656 141.735 216.656 141.735L215.787 149.633C215.769 149.974 215.787 150.304 215.787 150.63C215.708 152.407 216.087 154.175 216.887 155.763V183.493L190.487 200.205C186.527 201.965 187.407 216.04 195.327 218.676C203.247 221.313 210.291 204.63 210.291 204.63C215.112 204.307 223.223 197.876 227.583 192.897C228.172 193.848 228.955 194.664 229.882 195.292C226.736 202.383 220.513 217.052 221.507 220.029C222.105 221.826 237.556 221.991 254.258 221.639C254.685 221.876 255.133 222.074 255.596 222.229C257.378 222.823 259.116 222.435 260.729 221.478C278.799 220.961 296.267 220.029 296.267 220.029ZM273.97 166.26C274.336 165.245 275.539 164.691 277.149 164.427V175.122L273.97 166.26ZM272.433 128.679L272.485 128.602L272.433 128.679Z" fill="url(#paint20_linear)"/>
<path d="M232.782 152.892C232.782 152.892 231.946 182.55 231.11 186.312C230.274 190.074 218.167 201.33 211.893 201.766C211.893 201.766 205.209 217.639 197.688 215.134C190.168 212.63 189.332 199.262 193.094 197.59L218.167 181.714V149.966L232.782 152.892Z" fill="#FDB797"/>
<path d="M232.155 189.231C232.155 189.231 221.294 212.623 222.548 216.385C223.802 220.147 293.564 216.385 293.564 216.385C293.564 216.385 280.614 203.435 283.122 189.231H232.155Z" fill="#3AD29F"/>
<path d="M240.511 119.89C240.511 119.89 242.183 136.18 239.257 139.942C236.331 143.704 250.954 145.809 252.208 145.809C253.462 145.809 266.831 141.215 269.335 139.942C271.839 138.67 273.929 129.5 273.929 129.5C273.929 129.5 261.397 132.008 257.638 117.401L240.511 119.89Z" fill="#FDB797"/>
<path d="M236.133 78.0997C232.969 79.24 230.05 81.4252 228.701 84.5051C228.232 85.5757 227.949 86.7453 227.267 87.6986C225.746 89.8178 222.776 90.2174 220.667 91.7317C217.954 93.6933 216.949 97.3818 217.327 100.711C217.705 104.04 219.23 107.109 220.733 110.101C222.314 113.243 223.949 116.462 226.541 118.838C227.751 119.938 229.236 120.979 229.621 122.578C229.951 123.949 229.368 125.383 229.489 126.787C229.79 130.259 233.941 131.876 237.406 132.261C238.913 132.43 240.636 132.437 241.699 131.355C242.242 130.798 242.517 130.043 242.858 129.346C243.646 127.751 244.862 126.405 246.369 125.458C247.875 124.511 249.615 124 251.395 123.982C253.175 123.963 254.925 124.439 256.451 125.354C257.977 126.27 259.219 127.591 260.04 129.17C260.854 130.732 261.327 132.631 262.805 133.57C265.067 135.037 268.096 133.317 269.771 131.198C271.447 129.078 272.65 126.431 275.029 125.159C275.763 124.759 276.65 124.492 277.156 123.81C278.069 122.581 277.292 120.748 277.915 119.351C278.384 118.299 279.532 117.723 280.203 116.785C281.578 114.867 280.57 112.216 279.554 110.093L273.585 97.7557C271.931 94.3386 270.263 90.8957 267.953 87.8856C260.858 78.69 247.236 74.1033 236.133 78.0997Z" fill="#8566CC"/>
<path opacity="0.1" d="M251.372 142.864C251.372 142.864 267.663 142.864 271.843 127.832L285.556 138.465C286.503 139.199 287.291 140.118 287.871 141.166C288.451 142.214 288.811 143.37 288.93 144.562L290.224 157.497C290.224 157.497 291.691 162.301 290.015 165.226C290.015 165.226 272.679 160.827 272.261 165.853L284.361 199.688C284.361 199.688 265.562 200.106 260.55 196.754C260.55 196.754 240.079 200.931 235.066 196.336C230.054 191.742 225.042 192.16 229.2 181.715C229.2 181.715 220.843 173.359 224.605 161.663C228.367 149.966 224.814 161.872 224.814 161.872C224.814 161.872 216.7 157.904 217.118 150.366L217.954 142.846C217.954 142.846 217.998 142.597 218.115 142.15C220.664 132.25 227.506 126.75 237.127 130.255C239.939 131.275 242.814 130.105 242.814 130.105C242.814 130.105 239.675 143.7 251.372 142.864Z" fill="black"/>
<path d="M251.372 142.028C251.372 142.028 267.663 142.028 271.843 126.996L285.556 137.629C286.503 138.363 287.291 139.282 287.871 140.33C288.451 141.379 288.811 142.534 288.93 143.726L290.224 156.661C290.224 156.661 291.691 161.465 290.015 164.39C290.015 164.39 272.679 159.991 272.261 165.017L284.361 198.852C284.361 198.852 265.562 199.27 260.55 195.918C260.55 195.918 240.079 200.095 235.066 195.5C230.054 190.906 225.042 191.324 229.2 180.879C229.2 180.879 220.843 172.523 224.605 160.827C228.367 149.13 224.814 161.036 224.814 161.036C224.814 161.036 216.7 157.068 217.118 149.548L217.954 142.028C217.954 142.028 217.998 141.779 218.115 141.332C220.664 131.432 227.506 125.933 237.127 129.438C239.939 130.457 242.814 129.287 242.814 129.287C242.814 129.287 239.675 142.864 251.372 142.028Z" fill="#252A62"/>
<path d="M290.015 156.232C290.015 156.232 289.179 185.891 288.343 189.652C287.507 193.414 275.392 204.685 269.126 205.107C269.126 205.107 262.442 220.979 254.921 218.475C247.401 215.97 246.565 202.602 250.327 200.931L275.392 185.058V153.299L290.015 156.232Z" fill="#FDB797"/>
<path opacity="0.1" d="M272.067 157.277C272.067 157.277 281.673 163.796 290.033 163.254C290.033 163.254 290.869 152.056 288.361 151.429C285.853 150.802 274.974 151.429 272.067 157.277Z" fill="black"/>
<path d="M272.067 156.859C272.067 156.859 281.673 163.378 290.033 162.836C290.033 162.836 290.869 151.638 288.361 151.011C285.853 150.384 274.974 151.011 272.067 156.859Z" fill="#252A62"/>
<path opacity="0.1" d="M258.474 118.218L241.347 120.726C241.347 120.726 241.732 124.495 241.809 128.826C245.139 130.23 248.797 130.667 252.364 130.087C255.931 129.508 259.262 127.934 261.976 125.548C260.531 123.784 259.296 121.401 258.474 118.218Z" fill="black"/>
<path d="M248.45 129.5C259.063 129.5 267.667 120.897 267.667 110.284C267.667 99.6714 259.063 91.0681 248.45 91.0681C237.836 91.0681 229.233 99.6714 229.233 110.284C229.233 120.897 237.836 129.5 248.45 129.5Z" fill="#FDB797"/>
<path opacity="0.1" d="M253.513 106.588C252.695 106.896 251.819 107.021 250.947 106.955C247.549 106.933 244.152 106.811 240.757 106.588C238.19 106.416 235.44 106.112 233.457 104.465C230.787 102.266 230.366 98.0967 231.744 94.9142C233.123 91.7317 235.935 89.3852 238.905 87.5813C240.583 86.5232 242.399 85.7038 244.303 85.1467C249.803 83.6508 255.904 85.4877 260.278 89.1542C264.653 92.8206 267.443 98.115 268.921 103.629C269.43 105.536 270.087 107.809 271.975 108.396C270.717 110.486 267.648 110.819 265.448 109.771C262.2 108.227 260.535 102.317 257.62 101.386C254.368 100.341 256.26 105.327 253.513 106.588Z" fill="black"/>
<path d="M253.513 106.17C252.695 106.478 251.819 106.603 250.947 106.537C247.549 106.515 244.152 106.393 240.757 106.17C238.19 105.998 235.44 105.694 233.457 104.047C230.787 101.848 230.366 97.6788 231.744 94.4962C233.123 91.3137 235.935 88.9672 238.905 87.1633C240.582 86.1081 242.397 85.2912 244.299 84.7361C249.799 83.2401 255.9 85.077 260.275 88.7435C264.649 92.41 267.439 97.7044 268.917 103.219C269.427 105.125 270.083 107.399 271.971 107.985C270.714 110.075 267.645 110.409 265.445 109.36C262.196 107.817 260.531 101.906 257.616 100.975C254.368 99.9227 256.26 104.902 253.513 106.17Z" fill="#8566CC"/>
<path opacity="0.1" d="M229.024 180.67C235.289 178.996 241.748 178.152 248.233 178.162Z" fill="black"/>
<path opacity="0.1" d="M272.067 158.113C272.067 158.113 265.8 162.707 267.472 165.215Z" fill="black"/>
<g opacity="0.7">
<path opacity="0.7" d="M315.08 203.644H109.963V221.58H121.902V225.078V278H303.567V225.078V221.58H315.08V203.644Z" fill="url(#paint21_linear)"/>
</g>
<path d="M301.712 214.09H123.75V278.004H301.712V214.09Z" fill="#E0E0E0"/>
<path opacity="0.1" d="M301.712 217.43H123.75V227.454H301.712V217.43Z" fill="black"/>
<path d="M312.99 206.988H112.053V224.114H312.99V206.988Z" fill="#E0E0E0"/>
<path d="M176.902 202.771H143.235C141.918 202.771 140.851 203.838 140.851 205.154V205.818C140.851 207.134 141.918 208.201 143.235 208.201H176.902C178.218 208.201 179.285 207.134 179.285 205.818V205.154C179.285 203.838 178.218 202.771 176.902 202.771Z" fill="#535461"/>
<g opacity="0.7">
<path opacity="0.7" d="M249.421 142.227H174.592C168.877 142.227 164.245 146.859 164.245 152.573V197.924C164.245 203.638 168.877 208.271 174.592 208.271H249.421C255.136 208.271 259.769 203.638 259.769 197.924V152.573C259.769 146.859 255.136 142.227 249.421 142.227Z" fill="url(#paint22_linear)"/>
</g>
<path d="M246.594 143.444H175.787C170.352 143.444 165.946 147.85 165.946 153.285V198.426C165.946 203.861 170.352 208.267 175.787 208.267H246.594C252.03 208.267 256.436 203.861 256.436 198.426V153.285C256.436 147.85 252.03 143.444 246.594 143.444Z" fill="#3E3F49"/>
<path d="M247.848 143.444H177.041C171.606 143.444 167.2 147.85 167.2 153.285V198.426C167.2 203.861 171.606 208.267 177.041 208.267H247.848C253.284 208.267 257.69 203.861 257.69 198.426V153.285C257.69 147.85 253.284 143.444 247.848 143.444Z" fill="#535461"/>
<path d="M216.671 178.338C218.287 178.338 219.597 177.028 219.597 175.412C219.597 173.796 218.287 172.486 216.671 172.486C215.055 172.486 213.745 173.796 213.745 175.412C213.745 177.028 215.055 178.338 216.671 178.338Z" fill="#E0E0E0"/>
<path opacity="0.1" d="M97.0127 215.34C97.0127 215.34 99.484 218.966 106.814 220.077Z" fill="black"/>
<path opacity="0.2" d="M162.433 29.3319H136.4V14.6659H162.433V29.3319ZM137.5 28.2319H161.333V15.7659H137.5V28.2319Z" fill="#8566CC"/>
<path opacity="0.2" d="M188.467 29.3319H162.433V14.6659H188.467V29.3319ZM163.533 28.2319H187.367V15.7659H163.533V28.2319Z" fill="#8566CC"/>
<path opacity="0.2" d="M214.5 29.3319H188.467V14.6659H214.5V29.3319ZM189.567 28.2319H213.4V15.7659H189.567V28.2319Z" fill="#8566CC"/>
<path opacity="0.2" d="M240.533 29.3319H214.5V14.6659H240.533V29.3319ZM215.6 28.2319H239.433V15.7659H215.6V28.2319Z" fill="#8566CC"/>
<path opacity="0.2" d="M214.5 14.6659H188.467V0H214.5V14.6659ZM189.567 13.566H213.4V1.09994H189.567V13.566Z" fill="#8566CC"/>
<path opacity="0.2" d="M188.467 14.6659H162.433V0H188.467V14.6659ZM163.533 13.566H187.367V1.09994H163.533V13.566Z" fill="#8566CC"/>
<path opacity="0.2" d="M66 29.3319H39.9667V14.6659H66V29.3319ZM41.0667 28.2319H64.9V15.7659H41.0667V28.2319Z" fill="#8566CC"/>
<path opacity="0.2" d="M92.0333 29.3319H66V14.6659H92.0333V29.3319ZM67.1 28.2319H90.9333V15.7659H67.1V28.2319Z" fill="#8566CC"/>
<path opacity="0.2" d="M92.0333 14.6659H66V0H92.0333V14.6659ZM67.1 13.566H90.9333V1.09994H67.1V13.566Z" fill="#8566CC"/>
<path opacity="0.2" d="M293.333 29.3319H267.3V14.6659H293.333V29.3319ZM268.4 28.2319H292.233V15.7659H268.4V28.2319Z" fill="#8566CC"/>
<path opacity="0.2" d="M319.367 29.3319H293.333V14.6659H319.367V29.3319ZM294.433 28.2319H318.267V15.7659H294.433V28.2319Z" fill="#8566CC"/>
<path opacity="0.2" d="M319.367 14.6659H293.333V0H319.367V14.6659ZM294.433 13.566H318.267V1.09994H294.433V13.566Z" fill="#8566CC"/>
</g>
<defs>
<linearGradient id="paint0_linear" x1="97.02" y1="248.254" x2="143.15" y2="248.254" gradientUnits="userSpaceOnUse">
<stop stop-color="#808080" stop-opacity="0.25"/>
<stop offset="0.54" stop-color="#808080" stop-opacity="0.12"/>
<stop offset="1" stop-color="#808080" stop-opacity="0.1"/>
</linearGradient>
<linearGradient id="paint1_linear" x1="26070.7" y1="60299.6" x2="37186.3" y2="60299.6" gradientUnits="userSpaceOnUse">
<stop stop-color="#808080" stop-opacity="0.25"/>
<stop offset="0.54" stop-color="#808080" stop-opacity="0.12"/>
<stop offset="1" stop-color="#808080" stop-opacity="0.1"/>
</linearGradient>
<linearGradient id="paint2_linear" x1="26070.7" y1="60063.4" x2="37186.3" y2="60063.4" gradientUnits="userSpaceOnUse">
<stop stop-color="#808080" stop-opacity="0.25"/>
<stop offset="0.54" stop-color="#808080" stop-opacity="0.12"/>
<stop offset="1" stop-color="#808080" stop-opacity="0.1"/>
</linearGradient>
<linearGradient id="paint3_linear" x1="14815.3" y1="17076.7" x2="17718.8" y2="17076.7" gradientUnits="userSpaceOnUse">
<stop stop-color="#808080" stop-opacity="0.25"/>
<stop offset="0.54" stop-color="#808080" stop-opacity="0.12"/>
<stop offset="1" stop-color="#808080" stop-opacity="0.1"/>
</linearGradient>
<linearGradient id="paint4_linear" x1="18773.9" y1="76895.9" x2="27387.5" y2="76895.9" gradientUnits="userSpaceOnUse">
<stop stop-color="#808080" stop-opacity="0.25"/>
<stop offset="0.54" stop-color="#808080" stop-opacity="0.12"/>
<stop offset="1" stop-color="#808080" stop-opacity="0.1"/>
</linearGradient>
<linearGradient id="paint5_linear" x1="18638.6" y1="76895.9" x2="27251.7" y2="76895.9" gradientUnits="userSpaceOnUse">
<stop stop-color="#808080" stop-opacity="0.25"/>
<stop offset="0.54" stop-color="#808080" stop-opacity="0.12"/>
<stop offset="1" stop-color="#808080" stop-opacity="0.1"/>
</linearGradient>
<linearGradient id="paint6_linear" x1="17088.7" y1="61578.8" x2="24525.9" y2="61578.8" gradientUnits="userSpaceOnUse">
<stop stop-color="#808080" stop-opacity="0.25"/>
<stop offset="0.54" stop-color="#808080" stop-opacity="0.12"/>
<stop offset="1" stop-color="#808080" stop-opacity="0.1"/>
</linearGradient>
<linearGradient id="paint7_linear" x1="29078.9" y1="55895.6" x2="37778.9" y2="55895.6" gradientUnits="userSpaceOnUse">
<stop stop-color="#808080" stop-opacity="0.25"/>
<stop offset="0.54" stop-color="#808080" stop-opacity="0.12"/>
<stop offset="1" stop-color="#808080" stop-opacity="0.1"/>
</linearGradient>
<linearGradient id="paint8_linear" x1="29212.3" y1="55895.6" x2="37911.8" y2="55895.6" gradientUnits="userSpaceOnUse">
<stop stop-color="#808080" stop-opacity="0.25"/>
<stop offset="0.54" stop-color="#808080" stop-opacity="0.12"/>
<stop offset="1" stop-color="#808080" stop-opacity="0.1"/>
</linearGradient>
<linearGradient id="paint9_linear" x1="5187.74" y1="11522.3" x2="5814.07" y2="11522.3" gradientUnits="userSpaceOnUse">
<stop stop-color="#808080" stop-opacity="0.25"/>
<stop offset="0.54" stop-color="#808080" stop-opacity="0.12"/>
<stop offset="1" stop-color="#808080" stop-opacity="0.1"/>
</linearGradient>
<linearGradient id="paint10_linear" x1="4368.99" y1="7124.73" x2="4666.61" y2="7124.73" gradientUnits="userSpaceOnUse">
<stop stop-color="#808080" stop-opacity="0.25"/>
<stop offset="0.54" stop-color="#808080" stop-opacity="0.12"/>
<stop offset="1" stop-color="#808080" stop-opacity="0.1"/>
</linearGradient>
<linearGradient id="paint11_linear" x1="2334.74" y1="15935.5" x2="2376.56" y2="15935.5" gradientUnits="userSpaceOnUse">
<stop stop-color="#808080" stop-opacity="0.25"/>
<stop offset="0.54" stop-color="#808080" stop-opacity="0.12"/>
<stop offset="1" stop-color="#808080" stop-opacity="0.1"/>
</linearGradient>
<linearGradient id="paint12_linear" x1="2750.26" y1="16809.8" x2="2881.25" y2="16809.8" gradientUnits="userSpaceOnUse">
<stop stop-color="#808080" stop-opacity="0.25"/>
<stop offset="0.54" stop-color="#808080" stop-opacity="0.12"/>
<stop offset="1" stop-color="#808080" stop-opacity="0.1"/>
</linearGradient>
<linearGradient id="paint13_linear" x1="7953.75" y1="7090.13" x2="9022.95" y2="7090.13" gradientUnits="userSpaceOnUse">
<stop stop-color="#808080" stop-opacity="0.25"/>
<stop offset="0.54" stop-color="#808080" stop-opacity="0.12"/>
<stop offset="1" stop-color="#808080" stop-opacity="0.1"/>
</linearGradient>
<linearGradient id="paint14_linear" x1="11851.7" y1="6560.95" x2="13572.9" y2="6560.95" gradientUnits="userSpaceOnUse">
<stop stop-color="#808080" stop-opacity="0.25"/>
<stop offset="0.54" stop-color="#808080" stop-opacity="0.12"/>
<stop offset="1" stop-color="#808080" stop-opacity="0.1"/>
</linearGradient>
<linearGradient id="paint15_linear" x1="14381.8" y1="10303" x2="18752.5" y2="10303" gradientUnits="userSpaceOnUse">
<stop stop-color="#808080" stop-opacity="0.25"/>
<stop offset="0.54" stop-color="#808080" stop-opacity="0.12"/>
<stop offset="1" stop-color="#808080" stop-opacity="0.1"/>
</linearGradient>
<linearGradient id="paint16_linear" x1="20997.9" y1="13553.2" x2="27247.5" y2="13553.2" gradientUnits="userSpaceOnUse">
<stop stop-color="#808080" stop-opacity="0.25"/>
<stop offset="0.54" stop-color="#808080" stop-opacity="0.12"/>
<stop offset="1" stop-color="#808080" stop-opacity="0.1"/>
</linearGradient>
<linearGradient id="paint17_linear" x1="20934.2" y1="13499.1" x2="27181.8" y2="13499.1" gradientUnits="userSpaceOnUse">
<stop stop-color="#808080" stop-opacity="0.25"/>
<stop offset="0.54" stop-color="#808080" stop-opacity="0.12"/>
<stop offset="1" stop-color="#808080" stop-opacity="0.1"/>
</linearGradient>
<linearGradient id="paint18_linear" x1="13267.1" y1="12023.6" x2="15232.2" y2="12023.6" gradientUnits="userSpaceOnUse">
<stop stop-color="#808080" stop-opacity="0.25"/>
<stop offset="0.54" stop-color="#808080" stop-opacity="0.12"/>
<stop offset="1" stop-color="#808080" stop-opacity="0.1"/>
</linearGradient>
<linearGradient id="paint19_linear" x1="13267.1" y1="12061.2" x2="15232.2" y2="12061.2" gradientUnits="userSpaceOnUse">
<stop stop-color="#808080" stop-opacity="0.25"/>
<stop offset="0.54" stop-color="#808080" stop-opacity="0.12"/>
<stop offset="1" stop-color="#808080" stop-opacity="0.1"/>
</linearGradient>
<linearGradient id="paint20_linear" x1="82937.2" y1="101476" x2="82937.2" y2="40423.9" gradientUnits="userSpaceOnUse">
<stop stop-color="#808080" stop-opacity="0.25"/>
<stop offset="0.54" stop-color="#808080" stop-opacity="0.12"/>
<stop offset="1" stop-color="#808080" stop-opacity="0.1"/>
</linearGradient>
<linearGradient id="paint21_linear" x1="118996" y1="56582" x2="118996" y2="41502.6" gradientUnits="userSpaceOnUse">
<stop stop-color="#808080" stop-opacity="0.25"/>
<stop offset="0.54" stop-color="#808080" stop-opacity="0.12"/>
<stop offset="1" stop-color="#808080" stop-opacity="0.1"/>
</linearGradient>
<linearGradient id="paint22_linear" x1="55396.2" y1="37658.1" x2="55396.2" y2="25761.5" gradientUnits="userSpaceOnUse">
<stop stop-color="#808080" stop-opacity="0.25"/>
<stop offset="0.54" stop-color="#808080" stop-opacity="0.12"/>
<stop offset="1" stop-color="#808080" stop-opacity="0.1"/>
</linearGradient>
<clipPath id="clip0">
<rect width="363" height="278" fill="white"/>
</clipPath>
</defs>
</svg>
